<svg width="290" height="332" viewBox="0 0 290 332" fill="none" xmlns="http://www.w3.org/2000/svg">
<path d="M6.3792 323.744C4.91527 319.165 2.82477 314.248 1.73363 312.817C0.642492 311.387 -0.129493 309.854 0.0180868 309.411C0.165677 308.969 7.10151 301.713 15.4311 293.288C23.7606 284.862 31.5985 276.642 32.8485 275.02C34.0986 273.398 36.6555 270.305 38.5306 268.145C40.4057 265.986 43.6445 262.091 45.728 259.49C47.8114 256.89 50.4482 253.676 51.5874 252.35C52.7266 251.023 53.6642 249.341 53.6708 248.611C53.6778 247.882 53.9961 247.286 54.3788 247.286C54.7615 247.286 55.8265 246.069 56.7454 244.582L58.4163 241.879L60.4473 243.824C61.5644 244.895 62.8007 245.783 63.1946 245.799C63.5885 245.814 65.9079 247.68 68.349 249.945L72.7873 254.062L71.3461 256.545C70.0374 258.8 68.6446 259.75 62.7438 262.413C61.6853 262.891 54.0997 269.851 45.8869 277.88C33.8442 289.653 30.9545 292.871 30.9545 294.505C30.9545 295.876 30.5537 296.53 29.7139 296.53C28.619 296.53 28.536 297.304 29.0076 303.116C29.3015 306.738 29.852 310.281 30.231 310.989C31.1519 312.71 29.2771 316.411 26.8185 317.727C25.7811 318.282 23.611 320.303 21.9961 322.218C20.3811 324.132 17.4499 326.502 15.4823 327.484C13.5147 328.465 11.7326 329.718 11.5221 330.266C11.3116 330.815 10.6672 331.445 10.0901 331.666C9.31978 331.962 8.33335 329.856 6.3792 323.744Z" fill="black"/>
<path d="M149.241 297.892C144.581 291.713 144.83 289.279 151.066 280.102C154.933 274.412 156.825 268.237 158.051 257.305C159.43 245.005 160.867 240.878 166.049 234.336C169.523 229.949 173.22 226.36 174.265 226.36C175.309 226.36 182.733 221.309 190.763 215.136C203.833 205.088 206.13 204.029 212.702 205.021C221.544 206.356 226.749 202.144 222.534 197.065C220.474 194.583 220.612 194.035 223.297 194.035C225.187 194.035 226.575 192.386 226.575 190.14C226.575 186.908 224.595 186.004 214.958 184.831C202.598 183.328 194.595 180.127 190.32 174.975C188.876 173.235 185.987 171.811 183.901 171.811C180.808 171.811 180.108 170.285 180.108 163.541C180.108 156.97 179.278 155.054 176.067 154.214C173.845 153.633 171.935 151.673 171.824 149.858C171.713 148.043 171.307 140.194 170.922 132.416C169.515 103.964 168.933 99.8165 165.647 94.8019C162.378 89.8132 162.456 89.5653 168.924 84.4045C175.653 79.0353 179.304 69.3382 175.912 65.8465C172.832 62.6765 173.801 54.8792 177.769 50.9114C179.816 48.8641 182.074 42.939 182.786 37.7446C184.26 26.9928 189.496 15.5686 192.188 17.2322C193.181 17.8462 199.062 14.2202 205.257 9.1743L216.521 0L222.443 4.3784C227.333 7.99334 230.104 8.55092 238.334 7.5761C246.52 6.60663 249.07 7.11006 252.591 10.3902C257.055 14.5487 257.581 16.1844 256.944 23.9311C256.414 30.3869 260.359 34.4307 267.187 34.4307C270.362 34.4307 276.388 35.801 280.577 37.4759C287.953 40.4245 288.186 40.8246 287.94 50.1028C287.8 55.3728 288.342 64.6399 289.145 70.6965C290.218 78.7942 289.599 85.6327 286.805 96.5375C284.716 104.694 283.503 112.171 284.111 113.153C284.718 114.136 284.149 117.28 282.846 120.14C281.003 124.185 281.076 127.839 283.176 136.592C285.297 145.433 285.364 149.259 283.488 154.445C281.893 158.857 281.72 162.998 282.965 166.934C283.991 170.172 285.352 177.922 285.991 184.155C287.141 195.38 287.104 195.48 282.117 194.526C278.684 193.87 277.082 194.466 277.082 196.401C277.082 197.961 274.392 202.386 271.103 206.233C267.815 210.08 265.088 215.246 265.043 217.712C264.997 220.178 263.142 225.433 260.92 229.39C258.697 233.347 256.839 239.057 256.79 242.079C256.741 245.1 255.51 252.119 254.055 257.674C251.651 266.852 249.857 268.99 234.44 281.047C215.129 296.151 206.801 299.065 182.749 299.139C174.073 299.165 163.768 299.933 159.848 300.845C153.713 302.273 152.235 301.861 149.241 297.892V297.892Z" fill="black"/>
<path d="M262.192 265.822L257.508 265.448L257.87 259.281C258.132 254.83 258.802 252.507 260.281 250.933C262.725 248.331 262.853 246.544 260.805 243.619C259.54 241.813 259.494 240.958 260.537 238.596C261.228 237.031 262.608 235.148 263.604 234.412C264.599 233.675 265.329 232.539 265.225 231.886C265.121 231.234 265.607 229.336 266.306 227.669C267.004 226.002 267.917 222.205 268.333 219.23C268.931 214.963 269.711 213.332 272.024 211.509C273.637 210.238 276.32 206.651 277.987 203.538C280.995 197.919 283.965 196.172 285.17 199.313C285.741 200.8 282.112 211.961 279.892 215.547C279.204 216.658 278.321 219.386 277.93 221.608C277.539 223.83 276.88 226.103 276.467 226.659C276.054 227.214 275.451 229.033 275.129 230.7C274.806 232.366 274.094 236.003 273.547 238.781C272.999 241.559 272.524 248.945 272.491 255.196L272.431 266.56L269.653 266.378C268.125 266.278 264.768 266.028 262.192 265.822V265.822Z" fill="black"/>
</svg>
